<mxfile host="app.diagrams.net" agent="Mozilla/5.0 (Windows NT 10.0; Win64; x64) AppleWebKit/537.36 (KHTML, like Gecko) Chrome/131.0.0.0 Safari/537.36" version="25.0.1">
  <diagram name="Страница — 1" id="ZgFdtpZeKxMbYLLdvR25">
    <mxGraphModel dx="1270" dy="703" grid="1" gridSize="10" guides="1" tooltips="1" connect="1" arrows="1" fold="1" page="1" pageScale="1" pageWidth="827" pageHeight="1169" math="0" shadow="0">
      <root>
        <mxCell id="0" />
        <mxCell id="1" parent="0" />
        <mxCell id="J6qSH4h3In6FOhAMguiG-3" style="edgeStyle=orthogonalEdgeStyle;rounded=0;orthogonalLoop=1;jettySize=auto;html=1;entryX=0.5;entryY=0;entryDx=0;entryDy=0;" parent="1" source="J6qSH4h3In6FOhAMguiG-1" target="J6qSH4h3In6FOhAMguiG-2" edge="1">
          <mxGeometry relative="1" as="geometry" />
        </mxCell>
        <mxCell id="J6qSH4h3In6FOhAMguiG-1" value="начало программы" style="strokeWidth=2;html=1;shape=mxgraph.flowchart.terminator;whiteSpace=wrap;" parent="1" vertex="1">
          <mxGeometry x="371" y="10" width="86" height="50" as="geometry" />
        </mxCell>
        <mxCell id="J6qSH4h3In6FOhAMguiG-4" style="edgeStyle=orthogonalEdgeStyle;rounded=0;orthogonalLoop=1;jettySize=auto;html=1;" parent="1" source="J6qSH4h3In6FOhAMguiG-2" edge="1">
          <mxGeometry relative="1" as="geometry">
            <mxPoint x="414.0000000000002" y="140" as="targetPoint" />
          </mxGeometry>
        </mxCell>
        <mxCell id="J6qSH4h3In6FOhAMguiG-2" value="int n;" style="rounded=1;whiteSpace=wrap;html=1;absoluteArcSize=1;arcSize=14;strokeWidth=2;" parent="1" vertex="1">
          <mxGeometry x="386" y="80" width="56" height="40" as="geometry" />
        </mxCell>
        <mxCell id="nnQPNMmcKJyqIBtSwx4q-9" style="edgeStyle=orthogonalEdgeStyle;rounded=0;orthogonalLoop=1;jettySize=auto;html=1;" edge="1" parent="1" source="J6qSH4h3In6FOhAMguiG-7" target="nnQPNMmcKJyqIBtSwx4q-8">
          <mxGeometry relative="1" as="geometry">
            <Array as="points">
              <mxPoint x="360" y="260" />
              <mxPoint x="360" y="425" />
            </Array>
          </mxGeometry>
        </mxCell>
        <mxCell id="J6qSH4h3In6FOhAMguiG-7" value="" style="verticalLabelPosition=bottom;verticalAlign=top;html=1;shape=hexagon;perimeter=hexagonPerimeter2;arcSize=6;size=0.27;" parent="1" vertex="1">
          <mxGeometry x="230" y="230" width="100" height="60" as="geometry" />
        </mxCell>
        <mxCell id="J6qSH4h3In6FOhAMguiG-9" value="true" style="text;strokeColor=none;align=center;fillColor=none;html=1;verticalAlign=middle;whiteSpace=wrap;rounded=0;" parent="1" vertex="1">
          <mxGeometry x="310" y="140" width="60" height="30" as="geometry" />
        </mxCell>
        <mxCell id="J6qSH4h3In6FOhAMguiG-10" value="for int i = 0; i &amp;lt; n; i++" style="text;strokeColor=none;align=center;fillColor=none;html=1;verticalAlign=middle;whiteSpace=wrap;rounded=0;" parent="1" vertex="1">
          <mxGeometry x="250" y="245" width="60" height="30" as="geometry" />
        </mxCell>
        <mxCell id="nnQPNMmcKJyqIBtSwx4q-7" style="edgeStyle=orthogonalEdgeStyle;rounded=0;orthogonalLoop=1;jettySize=auto;html=1;entryX=0;entryY=0.5;entryDx=0;entryDy=0;" edge="1" parent="1" source="J6qSH4h3In6FOhAMguiG-13" target="J6qSH4h3In6FOhAMguiG-7">
          <mxGeometry relative="1" as="geometry">
            <Array as="points">
              <mxPoint x="210" y="360" />
              <mxPoint x="210" y="260" />
            </Array>
          </mxGeometry>
        </mxCell>
        <mxCell id="J6qSH4h3In6FOhAMguiG-13" value="вывести A&lt;br&gt;+ i&amp;nbsp;" style="shape=parallelogram;html=1;strokeWidth=2;perimeter=parallelogramPerimeter;whiteSpace=wrap;rounded=1;arcSize=12;size=0.23;" parent="1" vertex="1">
          <mxGeometry x="230" y="340" width="100" height="40" as="geometry" />
        </mxCell>
        <mxCell id="nnQPNMmcKJyqIBtSwx4q-16" style="edgeStyle=orthogonalEdgeStyle;rounded=0;orthogonalLoop=1;jettySize=auto;html=1;" edge="1" parent="1" source="J6qSH4h3In6FOhAMguiG-20" target="nnQPNMmcKJyqIBtSwx4q-3">
          <mxGeometry relative="1" as="geometry">
            <Array as="points">
              <mxPoint x="280" y="580" />
            </Array>
          </mxGeometry>
        </mxCell>
        <mxCell id="J6qSH4h3In6FOhAMguiG-20" value="вывести&lt;div&gt;новую&lt;/div&gt;&lt;div&gt;строку&lt;/div&gt;" style="shape=parallelogram;html=1;strokeWidth=2;perimeter=parallelogramPerimeter;whiteSpace=wrap;rounded=1;arcSize=12;size=0.23;" parent="1" vertex="1">
          <mxGeometry x="235" y="490" width="90" height="50" as="geometry" />
        </mxCell>
        <mxCell id="nnQPNMmcKJyqIBtSwx4q-15" style="edgeStyle=orthogonalEdgeStyle;rounded=0;orthogonalLoop=1;jettySize=auto;html=1;" edge="1" parent="1" source="J6qSH4h3In6FOhAMguiG-21" target="nnQPNMmcKJyqIBtSwx4q-3">
          <mxGeometry relative="1" as="geometry">
            <Array as="points">
              <mxPoint x="540" y="580" />
            </Array>
          </mxGeometry>
        </mxCell>
        <mxCell id="J6qSH4h3In6FOhAMguiG-21" value="&lt;font style=&quot;font-size: 11px;&quot;&gt;вывести&lt;br&gt;&quot;число n&lt;/font&gt;&lt;div style=&quot;font-size: 11px;&quot;&gt;&lt;font style=&quot;font-size: 11px;&quot;&gt;должно&lt;/font&gt;&lt;/div&gt;&lt;div style=&quot;font-size: 11px;&quot;&gt;&lt;font style=&quot;font-size: 11px;&quot;&gt;быть в пределах&lt;/font&gt;&lt;/div&gt;&lt;div style=&quot;font-size: 11px;&quot;&gt;&lt;font style=&quot;font-size: 11px;&quot;&gt;от 2 до 25&lt;/font&gt;&lt;/div&gt;" style="shape=parallelogram;html=1;strokeWidth=2;perimeter=parallelogramPerimeter;whiteSpace=wrap;rounded=1;arcSize=12;size=0.23;" parent="1" vertex="1">
          <mxGeometry x="480" y="245" width="130" height="80" as="geometry" />
        </mxCell>
        <mxCell id="J6qSH4h3In6FOhAMguiG-23" value="конец" style="strokeWidth=2;html=1;shape=mxgraph.flowchart.terminator;whiteSpace=wrap;" parent="1" vertex="1">
          <mxGeometry x="364" y="630" width="100" height="60" as="geometry" />
        </mxCell>
        <mxCell id="nnQPNMmcKJyqIBtSwx4q-11" style="edgeStyle=orthogonalEdgeStyle;rounded=0;orthogonalLoop=1;jettySize=auto;html=1;entryX=0.5;entryY=0;entryDx=0;entryDy=0;" edge="1" parent="1" source="nnQPNMmcKJyqIBtSwx4q-1" target="J6qSH4h3In6FOhAMguiG-21">
          <mxGeometry relative="1" as="geometry" />
        </mxCell>
        <mxCell id="nnQPNMmcKJyqIBtSwx4q-12" style="edgeStyle=orthogonalEdgeStyle;rounded=0;orthogonalLoop=1;jettySize=auto;html=1;entryX=0.5;entryY=0;entryDx=0;entryDy=0;" edge="1" parent="1" source="nnQPNMmcKJyqIBtSwx4q-1" target="J6qSH4h3In6FOhAMguiG-7">
          <mxGeometry relative="1" as="geometry" />
        </mxCell>
        <mxCell id="nnQPNMmcKJyqIBtSwx4q-1" value="if n &amp;gt; 1&lt;div&gt;and n &amp;lt; 26&lt;/div&gt;" style="strokeWidth=2;html=1;shape=mxgraph.flowchart.decision;whiteSpace=wrap;" vertex="1" parent="1">
          <mxGeometry x="354" y="140" width="120" height="70" as="geometry" />
        </mxCell>
        <mxCell id="nnQPNMmcKJyqIBtSwx4q-10" style="edgeStyle=orthogonalEdgeStyle;rounded=0;orthogonalLoop=1;jettySize=auto;html=1;entryX=0.5;entryY=0;entryDx=0;entryDy=0;" edge="1" parent="1" source="nnQPNMmcKJyqIBtSwx4q-8" target="J6qSH4h3In6FOhAMguiG-20">
          <mxGeometry relative="1" as="geometry" />
        </mxCell>
        <mxCell id="nnQPNMmcKJyqIBtSwx4q-8" value="для все" style="rounded=1;whiteSpace=wrap;html=1;absoluteArcSize=1;arcSize=14;strokeWidth=2;" vertex="1" parent="1">
          <mxGeometry x="230" y="400" width="100" height="50" as="geometry" />
        </mxCell>
        <mxCell id="nnQPNMmcKJyqIBtSwx4q-3" value="если все" style="rounded=1;whiteSpace=wrap;html=1;absoluteArcSize=1;arcSize=14;strokeWidth=2;" vertex="1" parent="1">
          <mxGeometry x="364" y="560" width="100" height="40" as="geometry" />
        </mxCell>
        <mxCell id="nnQPNMmcKJyqIBtSwx4q-14" style="edgeStyle=orthogonalEdgeStyle;rounded=0;orthogonalLoop=1;jettySize=auto;html=1;entryX=0.5;entryY=0;entryDx=0;entryDy=0;entryPerimeter=0;" edge="1" parent="1" source="nnQPNMmcKJyqIBtSwx4q-3" target="J6qSH4h3In6FOhAMguiG-23">
          <mxGeometry relative="1" as="geometry" />
        </mxCell>
      </root>
    </mxGraphModel>
  </diagram>
</mxfile>
